<?xml version="1.0" encoding="UTF-8" standalone="no"?>
<!-- Created with Inkscape (http://www.inkscape.org/) -->

<svg
   width="210mm"
   height="297mm"
   viewBox="0 0 210 297"
   version="1.1"
   id="svg82934"
   inkscape:version="1.1.2 (0a00cf5339, 2022-02-04)"
   sodipodi:docname="data product petal.svg"
   xmlns:inkscape="http://www.inkscape.org/namespaces/inkscape"
   xmlns:sodipodi="http://sodipodi.sourceforge.net/DTD/sodipodi-0.dtd"
   xmlns="http://www.w3.org/2000/svg"
   xmlns:svg="http://www.w3.org/2000/svg">
  <sodipodi:namedview
     id="namedview82936"
     pagecolor="#ffffff"
     bordercolor="#666666"
     borderopacity="1.0"
     inkscape:pageshadow="2"
     inkscape:pageopacity="0.0"
     inkscape:pagecheckerboard="0"
     inkscape:document-units="mm"
     showgrid="false"
     inkscape:zoom="0.66457632"
     inkscape:cx="397.24557"
     inkscape:cy="560.50748"
     inkscape:window-width="2560"
     inkscape:window-height="1416"
     inkscape:window-x="2560"
     inkscape:window-y="24"
     inkscape:window-maximized="1"
     inkscape:current-layer="layer1" />
  <defs
     id="defs82931" />
  <g
     inkscape:label="Layer 1"
     inkscape:groupmode="layer"
     id="layer1">
    <g
       id="g48624"
       transform="matrix(1.0951581,0,0,1.0951581,-471.5748,538.24206)">
      <path
         style="fill:#5bffff;fill-opacity:0.814235;stroke:#000000;stroke-width:0.264583px;stroke-linecap:butt;stroke-linejoin:miter;stroke-opacity:1"
         d="m 527.92205,-315.08754 c 4.52854,-5.84061 12.75471,-23.60398 12.75471,-23.60398 0,0 -14.96841,1.06897 -25.34278,0.3698 3.20475,6.95375 6.7886,14.34914 12.58807,23.23418 z"
         id="path28451"
         sodipodi:nodetypes="cccc" />
      <path
         style="fill:#c4ff20;fill-opacity:0.814235;stroke:#000000;stroke-width:0.264583px;stroke-linecap:butt;stroke-linejoin:miter;stroke-opacity:1"
         d="m 566.69548,-343.3081 c -4.11398,-6.13967 -18.37568,-19.54904 -18.37568,-19.54904 0,0 -3.70714,14.54143 -7.64304,24.16562 7.60964,-0.8477 15.75793,-1.91583 26.01872,-4.61658 z"
         id="path28451-1"
         sodipodi:nodetypes="cccc" />
      <path
         style="fill:#ff9b00;fill-opacity:0.814235;stroke:#000000;stroke-width:0.264583px;stroke-linecap:butt;stroke-linejoin:miter;stroke-opacity:1"
         d="m 552.31205,-388.97895 c -7.13626,1.92202 -25.18049,11.25561 -25.18049,11.25561 0,0 13.34006,8.04546 21.18824,14.8662 1.64344,-7.47827 3.2513,-15.53744 3.99225,-26.12181 z"
         id="path28451-1-2"
         sodipodi:nodetypes="cccc" />
      <path
         style="fill:#bf0085;fill-opacity:0.722097;stroke:#000000;stroke-width:0.264583px;stroke-linecap:butt;stroke-linejoin:miter;stroke-opacity:1"
         d="m 503.14823,-388.81774 c -0.13688,7.38929 3.89238,26.5458 3.89238,26.5458 0,0 11.35785,-9.8079 20.09096,-15.45142 -6.72694,-3.65694 -14.02183,-7.44115 -23.98334,-11.09438 z"
         id="path28451-1-2-7"
         sodipodi:nodetypes="cccc" />
      <path
         style="fill:#6300ff;fill-opacity:0.814235;stroke:#000000;stroke-width:0.264583px;stroke-linecap:butt;stroke-linejoin:miter;stroke-opacity:1"
         d="m 488.92186,-343.03663 c 6.9656,2.46998 26.41212,4.71491 26.41212,4.71491 0,0 -5.70608,-13.87935 -8.29337,-23.95022 -5.5991,5.22255 -11.49879,10.9435 -18.11875,19.23531 z"
         id="path28451-1-2-7-0"
         sodipodi:nodetypes="cccc" />
      <path
         style="fill:#ff0032;fill-opacity:0.516577;stroke:#000000;stroke-width:0.264583px;stroke-linecap:butt;stroke-linejoin:miter;stroke-opacity:1"
         d="m 552.33951,-389.1229 c 1.94758,-27.80949 -6.0617,-42.75364 -24.60849,-43.13069 -18.33677,-0.37278 -26.14968,22.30788 -24.5828,43.43585 12.0878,4.59851 15.04911,6.49345 23.98334,11.0944 14.93062,-7.31887 18.10466,-8.73974 25.20795,-11.39956 z"
         id="path29567"
         sodipodi:nodetypes="csccc" />
      <path
         style="fill:#ffff00;fill-opacity:0.51059;stroke:#000000;stroke-width:0.264583px;stroke-linecap:butt;stroke-linejoin:miter;stroke-opacity:1"
         d="m 566.69548,-343.3081 c 27.11603,-6.47157 39.02606,-17.50227 33.83049,-35.31048 -5.13672,-17.60654 -28.49786,-18.32769 -48.18646,-10.50432 -0.76674,12.9102 -2.30607,16.36361 -4.01971,26.26576 11.455,12.0529 13.71035,13.56857 18.37568,19.54904 z"
         id="path29567-9"
         sodipodi:nodetypes="csccc"
         inkscape:transform-center-x="-26.66081"
         inkscape:transform-center-y="-5.1770639" />
      <path
         style="fill:#00ff00;fill-opacity:0.538161;stroke:#000000;stroke-width:0.264583px;stroke-linecap:butt;stroke-linejoin:miter;stroke-opacity:1"
         d="m 527.92205,-315.08754 c 14.86153,23.58591 29.30795,31.39729 44.49324,20.74208 15.01332,-10.53453 8.02885,-32.8437 -5.71981,-48.96264 -12.46901,3.43291 -16.09239,3.04908 -26.01872,4.61658 -7.72041,14.72701 -8.59588,17.26084 -12.75471,23.60398 z"
         id="path29567-9-3"
         sodipodi:nodetypes="csccc"
         inkscape:transform-center-x="-13.255417"
         inkscape:transform-center-y="21.915517" />
      <path
         style="fill:#00baff;fill-opacity:0.523353;stroke:#000000;stroke-width:0.264583px;stroke-linecap:butt;stroke-linejoin:miter;stroke-opacity:1"
         d="m 488.92186,-343.03663 c -17.55848,21.65318 -20.35145,38.06635 -5.38124,49.02168 14.80067,10.83127 33.53616,-2.87299 44.38143,-21.07259 -7.25808,-10.70426 -7.91361,-14.3382 -12.58807,-23.23418 -16.42694,-2.57786 -19.06891,-2.81527 -26.41212,-4.71491 z"
         id="path29567-9-3-6"
         sodipodi:nodetypes="csccc"
         inkscape:transform-center-x="14.239802"
         inkscape:transform-center-y="21.453538" />
      <path
         style="fill:#7d00ff;fill-opacity:0.554844;stroke:#000000;stroke-width:0.264583px;stroke-linecap:butt;stroke-linejoin:miter;stroke-opacity:1"
         d="m 503.14823,-388.81774 c -25.62097,-10.98756 -40.9483,-9.34938 -47.40562,8.04112 -6.3842,17.19355 12.46393,32.03275 32.93138,37.50346 8.31905,-9.90225 11.0827,-12.07538 18.36662,-18.99878 -1.99986,-16.50728 -3.71735,-18.96288 -3.89238,-26.5458 z"
         id="path29567-9-3-6-0"
         sodipodi:nodetypes="csccc"
         inkscape:transform-center-x="26.251035"
         inkscape:transform-center-y="-7.537991" />
    </g>
    <text
       xml:space="preserve"
       style="font-style:normal;font-weight:normal;font-size:8.94754px;line-height:1.25;font-family:sans-serif;letter-spacing:0px;word-spacing:0px;fill:#000000;fill-opacity:1;stroke:none;stroke-width:0.223689"
       x="85.721817"
       y="95.534973"
       id="text50762"><tspan
         sodipodi:role="line"
         id="tspan50760"
         style="stroke-width:0.223689"
         x="85.721817"
         y="95.534973">Packaged</tspan></text>
    <text
       xml:space="preserve"
       style="font-style:normal;font-weight:normal;font-size:8.94754px;line-height:1.25;font-family:sans-serif;text-align:center;letter-spacing:0px;word-spacing:0px;text-anchor:middle;fill:#000000;fill-opacity:1;stroke:none;stroke-width:0.223689"
       x="106.09866"
       y="144.46257"
       id="text50762-0"><tspan
         sodipodi:role="line"
         id="tspan50760-23"
         style="text-align:center;text-anchor:middle;stroke-width:0.223689"
         x="106.09866"
         y="144.46257">Data</tspan><tspan
         sodipodi:role="line"
         style="text-align:center;text-anchor:middle;stroke-width:0.223689"
         x="106.09866"
         y="155.64699"
         id="tspan64353">Product</tspan></text>
    <text
       xml:space="preserve"
       style="font-style:normal;font-weight:normal;font-size:8.94754px;line-height:1.25;font-family:sans-serif;letter-spacing:0px;word-spacing:0px;fill:#000000;fill-opacity:1;stroke:none;stroke-width:0.223689"
       x="133.54813"
       y="137.556"
       id="text50762-6"><tspan
         sodipodi:role="line"
         id="tspan50760-2"
         style="stroke-width:0.223689"
         x="133.54813"
         y="137.556">Accessible</tspan></text>
    <text
       xml:space="preserve"
       style="font-style:normal;font-weight:normal;font-size:8.94754px;line-height:1.25;font-family:sans-serif;letter-spacing:0px;word-spacing:0px;fill:#000000;fill-opacity:1;stroke:none;stroke-width:0.223689"
       x="114.67245"
       y="196.31319"
       id="text50762-6-6"><tspan
         sodipodi:role="line"
         id="tspan50760-2-1"
         style="stroke-width:0.223689"
         x="114.67245"
         y="196.31319">Supported</tspan></text>
    <text
       xml:space="preserve"
       style="font-style:normal;font-weight:normal;font-size:8.94754px;line-height:1.25;font-family:sans-serif;letter-spacing:0px;word-spacing:0px;fill:#000000;fill-opacity:1;stroke:none;stroke-width:0.223689"
       x="51.789715"
       y="196.62071"
       id="text50762-6-6-8"><tspan
         sodipodi:role="line"
         id="tspan50760-2-1-7"
         style="stroke-width:0.223689"
         x="51.789715"
         y="196.62071">Compliant</tspan></text>
    <text
       xml:space="preserve"
       style="font-style:normal;font-weight:normal;font-size:8.94754px;line-height:1.25;font-family:sans-serif;letter-spacing:0px;word-spacing:0px;fill:#000000;fill-opacity:1;stroke:none;stroke-width:0.223689"
       x="31.22298"
       y="134.57095"
       id="text50762-6-6-9"><tspan
         sodipodi:role="line"
         id="tspan50760-2-1-2"
         style="stroke-width:0.223689"
         x="31.22298"
         y="134.57095">Integrated</tspan></text>
  </g>
</svg>
